<svg width="50" height="50" viewBox="0 0 50 50" fill="none" xmlns="http://www.w3.org/2000/svg">
<circle cx="25" cy="25" r="25" fill="#2D9AD8"/>
<path d="M12.5159 15.8H14.1159V27H12.5159V15.8ZM20.7331 27.128C19.8904 27.128 19.0744 27 18.2851 26.744C17.5064 26.4773 16.8931 26.136 16.4451 25.72L17.0371 24.472C17.4637 24.856 18.0077 25.1707 18.6691 25.416C19.3411 25.6507 20.0291 25.768 20.7331 25.768C21.6611 25.768 22.3544 25.6133 22.8131 25.304C23.2717 24.984 23.5011 24.5627 23.5011 24.04C23.5011 23.656 23.3731 23.3467 23.1171 23.112C22.8717 22.8667 22.5624 22.68 22.1891 22.552C21.8264 22.424 21.3091 22.28 20.6371 22.12C19.7944 21.9173 19.1117 21.7147 18.5891 21.512C18.0771 21.3093 17.6344 21 17.2611 20.584C16.8984 20.1573 16.7171 19.5867 16.7171 18.872C16.7171 18.2747 16.8717 17.736 17.1811 17.256C17.5011 16.776 17.9811 16.392 18.6211 16.104C19.2611 15.816 20.0557 15.672 21.0051 15.672C21.6664 15.672 22.3171 15.7573 22.9571 15.928C23.5971 16.0987 24.1464 16.344 24.6051 16.664L24.0771 17.944C23.6077 17.6453 23.1064 17.4213 22.5731 17.272C22.0397 17.112 21.5171 17.032 21.0051 17.032C20.0984 17.032 19.4157 17.1973 18.9571 17.528C18.5091 17.8587 18.2851 18.2853 18.2851 18.808C18.2851 19.192 18.4131 19.5067 18.6691 19.752C18.9251 19.9867 19.2397 20.1733 19.6131 20.312C19.9971 20.44 20.5144 20.5787 21.1651 20.728C22.0077 20.9307 22.6851 21.1333 23.1971 21.336C23.7091 21.5387 24.1464 21.848 24.5091 22.264C24.8824 22.68 25.0691 23.24 25.0691 23.944C25.0691 24.5307 24.9091 25.0693 24.5891 25.56C24.2691 26.04 23.7837 26.424 23.1331 26.712C22.4824 26.9893 21.6824 27.128 20.7331 27.128ZM32.4626 27.128C31.3319 27.128 30.3132 26.8827 29.4066 26.392C28.4999 25.8907 27.7852 25.2027 27.2626 24.328C26.7506 23.4533 26.4946 22.4773 26.4946 21.4C26.4946 20.3227 26.7506 19.3467 27.2626 18.472C27.7852 17.5973 28.4999 16.9147 29.4066 16.424C30.3132 15.9227 31.3319 15.672 32.4626 15.672C33.5826 15.672 34.5959 15.9227 35.5026 16.424C36.4092 16.9147 37.1186 17.5973 37.6306 18.472C38.1426 19.336 38.3986 20.312 38.3986 21.4C38.3986 22.488 38.1426 23.4693 37.6306 24.344C37.1186 25.208 36.4092 25.8907 35.5026 26.392C34.5959 26.8827 33.5826 27.128 32.4626 27.128ZM32.4626 25.704C33.2839 25.704 34.0199 25.5173 34.6706 25.144C35.3319 24.7707 35.8492 24.2587 36.2226 23.608C36.6066 22.9467 36.7986 22.2107 36.7986 21.4C36.7986 20.5893 36.6066 19.8587 36.2226 19.208C35.8492 18.5467 35.3319 18.0293 34.6706 17.656C34.0199 17.2827 33.2839 17.096 32.4626 17.096C31.6412 17.096 30.8946 17.2827 30.2226 17.656C29.5612 18.0293 29.0386 18.5467 28.6546 19.208C28.2812 19.8587 28.0946 20.5893 28.0946 21.4C28.0946 22.2107 28.2812 22.9467 28.6546 23.608C29.0386 24.2587 29.5612 24.7707 30.2226 25.144C30.8946 25.5173 31.6412 25.704 32.4626 25.704Z" fill="white"/>
<path d="M18.5679 35.036L17.2479 36.26V38H16.0959V29.096H17.2479V34.808L20.7159 31.64H22.1079L19.4319 34.268L22.3719 38H20.9559L18.5679 35.036ZM31.3644 31.58C32.1644 31.58 32.7964 31.812 33.2604 32.276C33.7324 32.74 33.9684 33.428 33.9684 34.34V38H32.8164V34.472C32.8164 33.856 32.6724 33.392 32.3844 33.08C32.1044 32.768 31.7004 32.612 31.1724 32.612C30.5884 32.612 30.1244 32.796 29.7804 33.164C29.4364 33.524 29.2644 34.044 29.2644 34.724V38H28.1124V34.472C28.1124 33.856 27.9684 33.392 27.6804 33.08C27.4004 32.768 26.9964 32.612 26.4684 32.612C25.8844 32.612 25.4204 32.796 25.0764 33.164C24.7324 33.524 24.5604 34.044 24.5604 34.724V38H23.4084V31.64H24.5124V32.588C24.7444 32.26 25.0484 32.012 25.4244 31.844C25.8004 31.668 26.2284 31.58 26.7084 31.58C27.2044 31.58 27.6444 31.68 28.0284 31.88C28.4124 32.08 28.7084 32.372 28.9164 32.756C29.1564 32.388 29.4884 32.1 29.9124 31.892C30.3444 31.684 30.8284 31.58 31.3644 31.58Z" fill="white"/>
</svg>
