<svg width="50" height="50" viewBox="0 0 50 50" fill="none" xmlns="http://www.w3.org/2000/svg">
<circle cx="25" cy="25" r="25" fill="#2D9AD8"/>
<path d="M21.4608 22.024L19.4128 24.104V27H17.8128V15.8H19.4128V22.056L25.4928 15.8H27.3168L22.5328 20.84L27.6208 27H25.7488L21.4608 22.024ZM32.1853 15.8V27H30.6013V17.192H28.0733V15.8H32.1853Z" fill="white"/>
<path d="M18.5679 35.036L17.2479 36.26V38H16.0959V29.096H17.2479V34.808L20.7159 31.64H22.1079L19.4319 34.268L22.3719 38H20.9559L18.5679 35.036ZM31.3644 31.58C32.1644 31.58 32.7964 31.812 33.2604 32.276C33.7324 32.74 33.9684 33.428 33.9684 34.34V38H32.8164V34.472C32.8164 33.856 32.6724 33.392 32.3844 33.08C32.1044 32.768 31.7004 32.612 31.1724 32.612C30.5884 32.612 30.1244 32.796 29.7804 33.164C29.4364 33.524 29.2644 34.044 29.2644 34.724V38H28.1124V34.472C28.1124 33.856 27.9684 33.392 27.6804 33.08C27.4004 32.768 26.9964 32.612 26.4684 32.612C25.8844 32.612 25.4204 32.796 25.0764 33.164C24.7324 33.524 24.5604 34.044 24.5604 34.724V38H23.4084V31.64H24.5124V32.588C24.7444 32.26 25.0484 32.012 25.4244 31.844C25.8004 31.668 26.2284 31.58 26.7084 31.58C27.2044 31.58 27.6444 31.68 28.0284 31.88C28.4124 32.08 28.7084 32.372 28.9164 32.756C29.1564 32.388 29.4884 32.1 29.9124 31.892C30.3444 31.684 30.8284 31.58 31.3644 31.58Z" fill="white"/>
</svg>
