<svg width="50" height="50" viewBox="0 0 50 50" fill="none" xmlns="http://www.w3.org/2000/svg">
<circle cx="25" cy="25" r="25" fill="#FC7A7A"/>
<path d="M13.8058 15.8C15.2565 15.8 16.3978 16.1467 17.2298 16.84C18.0618 17.5333 18.4778 18.488 18.4778 19.704C18.4778 20.92 18.0618 21.8747 17.2298 22.568C16.3978 23.2613 15.2565 23.608 13.8058 23.608H11.0378V27H9.43781V15.8H13.8058ZM13.7578 22.216C14.7711 22.216 15.5445 22.0027 16.0778 21.576C16.6111 21.1387 16.8778 20.5147 16.8778 19.704C16.8778 18.8933 16.6111 18.2747 16.0778 17.848C15.5445 17.4107 14.7711 17.192 13.7578 17.192H11.0378V22.216H13.7578ZM26.0407 27.128C24.91 27.128 23.8914 26.8827 22.9847 26.392C22.078 25.8907 21.3634 25.2027 20.8407 24.328C20.3287 23.4533 20.0727 22.4773 20.0727 21.4C20.0727 20.3227 20.3287 19.3467 20.8407 18.472C21.3634 17.5973 22.078 16.9147 22.9847 16.424C23.8914 15.9227 24.91 15.672 26.0407 15.672C27.1607 15.672 28.174 15.9227 29.0807 16.424C29.9874 16.9147 30.6967 17.5973 31.2087 18.472C31.7207 19.336 31.9767 20.312 31.9767 21.4C31.9767 22.488 31.7207 23.4693 31.2087 24.344C30.6967 25.208 29.9874 25.8907 29.0807 26.392C28.174 26.8827 27.1607 27.128 26.0407 27.128ZM26.0407 25.704C26.862 25.704 27.598 25.5173 28.2487 25.144C28.91 24.7707 29.4274 24.2587 29.8007 23.608C30.1847 22.9467 30.3767 22.2107 30.3767 21.4C30.3767 20.5893 30.1847 19.8587 29.8007 19.208C29.4274 18.5467 28.91 18.0293 28.2487 17.656C27.598 17.2827 26.862 17.096 26.0407 17.096C25.2194 17.096 24.4727 17.2827 23.8007 17.656C23.1394 18.0293 22.6167 18.5467 22.2327 19.208C21.8594 19.8587 21.6727 20.5893 21.6727 21.4C21.6727 22.2107 21.8594 22.9467 22.2327 23.608C22.6167 24.2587 23.1394 24.7707 23.8007 25.144C24.4727 25.5173 25.2194 25.704 26.0407 25.704ZM34.4222 15.8H36.0222V25.608H42.0862V27H34.4222V15.8Z" fill="white"/>
<path d="M18.5679 35.036L17.2479 36.26V38H16.0959V29.096H17.2479V34.808L20.7159 31.64H22.1079L19.4319 34.268L22.3719 38H20.9559L18.5679 35.036ZM31.3644 31.58C32.1644 31.58 32.7964 31.812 33.2604 32.276C33.7324 32.74 33.9684 33.428 33.9684 34.34V38H32.8164V34.472C32.8164 33.856 32.6724 33.392 32.3844 33.08C32.1044 32.768 31.7004 32.612 31.1724 32.612C30.5884 32.612 30.1244 32.796 29.7804 33.164C29.4364 33.524 29.2644 34.044 29.2644 34.724V38H28.1124V34.472C28.1124 33.856 27.9684 33.392 27.6804 33.08C27.4004 32.768 26.9964 32.612 26.4684 32.612C25.8844 32.612 25.4204 32.796 25.0764 33.164C24.7324 33.524 24.5604 34.044 24.5604 34.724V38H23.4084V31.64H24.5124V32.588C24.7444 32.26 25.0484 32.012 25.4244 31.844C25.8004 31.668 26.2284 31.58 26.7084 31.58C27.2044 31.58 27.6444 31.68 28.0284 31.88C28.4124 32.08 28.7084 32.372 28.9164 32.756C29.1564 32.388 29.4884 32.1 29.9124 31.892C30.3444 31.684 30.8284 31.58 31.3644 31.58Z" fill="white"/>
</svg>
