<svg width="50" height="50" viewBox="0 0 50 50" fill="none" xmlns="http://www.w3.org/2000/svg">
<circle cx="25" cy="25" r="25" fill="#4BBEAA"/>
<path d="M20.0546 22.024L18.0066 24.104V27H16.4066V15.8H18.0066V22.056L24.0866 15.8H25.9106L21.1266 20.84L26.2146 27H24.3426L20.0546 22.024ZM31.1732 20.504C32.2719 20.6107 33.1092 20.952 33.6852 21.528C34.2612 22.0933 34.5492 22.8187 34.5492 23.704C34.5492 24.344 34.3892 24.9253 34.0692 25.448C33.7492 25.96 33.2692 26.3707 32.6292 26.68C31.9999 26.9787 31.2265 27.128 30.3092 27.128C29.5092 27.128 28.7412 27.0107 28.0052 26.776C27.2692 26.5307 26.6665 26.1947 26.1972 25.768L26.9332 24.504C27.3172 24.8667 27.8079 25.16 28.4052 25.384C29.0025 25.5973 29.6372 25.704 30.3092 25.704C31.1412 25.704 31.7865 25.528 32.2452 25.176C32.7145 24.824 32.9492 24.3387 32.9492 23.72C32.9492 23.1013 32.7199 22.6213 32.2612 22.28C31.8025 21.9387 31.1092 21.768 30.1812 21.768H29.2852V20.648L32.1012 17.192H26.7092V15.8H34.1012V16.888L31.1732 20.504Z" fill="white"/>
<path d="M18.5679 35.036L17.2479 36.26V38H16.0959V29.096H17.2479V34.808L20.7159 31.64H22.1079L19.4319 34.268L22.3719 38H20.9559L18.5679 35.036ZM31.3644 31.58C32.1644 31.58 32.7964 31.812 33.2604 32.276C33.7324 32.74 33.9684 33.428 33.9684 34.34V38H32.8164V34.472C32.8164 33.856 32.6724 33.392 32.3844 33.08C32.1044 32.768 31.7004 32.612 31.1724 32.612C30.5884 32.612 30.1244 32.796 29.7804 33.164C29.4364 33.524 29.2644 34.044 29.2644 34.724V38H28.1124V34.472C28.1124 33.856 27.9684 33.392 27.6804 33.08C27.4004 32.768 26.9964 32.612 26.4684 32.612C25.8844 32.612 25.4204 32.796 25.0764 33.164C24.7324 33.524 24.5604 34.044 24.5604 34.724V38H23.4084V31.64H24.5124V32.588C24.7444 32.26 25.0484 32.012 25.4244 31.844C25.8004 31.668 26.2284 31.58 26.7084 31.58C27.2044 31.58 27.6444 31.68 28.0284 31.88C28.4124 32.08 28.7084 32.372 28.9164 32.756C29.1564 32.388 29.4884 32.1 29.9124 31.892C30.3444 31.684 30.8284 31.58 31.3644 31.58Z" fill="white"/>
</svg>
